<?xml version="1.0" standalone="no"?>
<!DOCTYPE svg PUBLIC "-//W3C//DTD SVG 1.1//EN" "http://www.w3.org/Graphics/SVG/1.1/DTD/svg11.dtd" >
<svg xmlns="http://www.w3.org/2000/svg">
<metadata>Generated by IcoMoon</metadata>
<defs>
<font id="icomoon" horiz-adv-x="1024">
<font-face units-per-em="1024" ascent="960" descent="-64" />
<missing-glyph horiz-adv-x="1024" />
<glyph unicode="&#x20;" horiz-adv-x="512" d="" />
<glyph unicode="&#xe900;" glyph-name="settings_icon" d="M703.211 554.399l45.945 45.886-88.705 88.587-45.709-45.768c-13.919 7.667-28.369 14.686-44.058 19.227v63.757h-125.213v-63.934c-15.335-4.6-29.667-11.56-43.468-19.109l-45.827 45.827-88.587-88.528 46.004-46.004c-7.549-13.801-14.391-28.074-18.873-43.468h-63.934v-125.272h64.405c4.6-15.217 11.442-29.372 18.991-42.996l-46.181-46.299 88.528-88.587 46.889 46.889c13.506-7.254 27.248-14.096 42.052-18.461v-65.172h125.272v65.054c15.158 4.423 29.195 11.206 42.76 18.579l46.712-46.771 88.587 88.646-46.181 46.122c7.549 13.683 14.45 27.779 19.109 43.055h64.229v125.213h-63.816c-4.541 15.394-11.383 29.667-18.932 43.527zM508.166 302.852c-80.743 0-146.151 65.408-146.151 146.21 0 80.743 65.349 146.151 146.151 146.151 80.625 0 146.151-65.408 146.151-146.151s-65.526-146.21-146.151-146.21zM955.466 703.971c-141.374 244.823-454.554 328.751-699.26 187.319-244.941-141.315-328.987-454.436-187.495-699.26 141.374-244.882 454.436-328.751 699.319-187.378s328.633 454.495 187.436 699.319zM724.444 80.087c-203.184-117.251-462.929-47.655-580.298 155.529-117.31 203.125-47.596 462.929 155.588 580.298 203.125 117.31 462.87 47.714 580.18-155.47 117.428-203.243 47.655-462.988-155.47-580.357z" />
<glyph unicode="&#xe901;" glyph-name="switch_off" d="M1024.095 853.446l-106.601 106.554-405.446-405.446-405.493 405.446-106.554-106.554 405.493-405.446-405.493-405.446 106.554-106.554 405.493 405.446 405.446-405.446 106.601 106.554-405.493 405.446z" />
<glyph unicode="&#xe902;" glyph-name="switch_on" horiz-adv-x="1386" d="M1264.867 960l-782.993-783.063-361.44 361.371-120.434-120.364 481.874-481.944 903.636 903.566z" />
<glyph unicode="&#xe903;" glyph-name="top_logo" horiz-adv-x="3212" d="M1753.666 188.936l-55.968 151.407h-44.25l20.583-55.737 79.558-211.152 101.76 266.889h-45.792l-55.891-151.407zM1973.145 83.783h42.477v256.559h-42.477v-256.559zM615.803 882.909l-570.628 61.287-45.175 15.804 71.926-102.223 132.057-425.62 411.589-496.158 411.666 496.158 89.811 307.516-265.347-28.369-49.415-152.409-125.813-151.869-61.287 73.468-61.287-73.468-126.969 152.563-49.57 153.719-89.657 8.557 66.298-202.981 199.589-240.37 61.519 73.776 61.519-73.776 198.586 239.753 37.62 115.868 89.348 9.559-48.105-171.219-338.43-407.889-338.43 407.889-116.716 376.281 454.991-48.799 509.495 50.032 65.836 95.053-60.979-14.879-514.043-47.257zM2880.352 265.256c0 74.624-84.877 74.624-84.877 74.624h-84.492v-256.173h42.4v106.848h34.46l48.567-106.848h46.794l-51.882 113.401c22.896 8.48 49.030 26.751 49.030 68.148zM2795.474 233.032h-42.092v64.063h42.092c0 0 42.4 0 42.4-31.839 0.077-32.224-42.4-32.224-42.4-32.224zM1594.474 188.936l-55.583 151.407h-45.792l101.375-266.889 57.664 152.949-22.125 58.666-35.539-96.132zM1620.299 503.544c70.23 0 127.2 57.433 127.2 128.279 0 6.013-0.54 11.795-1.311 17.577h-90.042l-37.852-41.552h83.258c-10.33-35.462-42.786-61.519-81.254-61.519-46.717 0-84.646 38.314-84.646 85.417s38.006 85.417 84.646 85.417c22.511 0 42.94-8.943 58.127-23.436l28.832 31.453c-22.742 21.585-53.27 34.845-86.959 34.845-70.23 0-127.2-57.433-127.2-128.279s56.893-128.202 127.2-128.202zM2392.211 83.783h45.792l10.87 29.68h89.426l11.255-29.68h45.792l-101.76 263.96-101.375-263.96zM2462.75 150.467l30.913 89.117 30.913-89.117h-61.827zM2559.73 668.519l-65.065 91.661h-51.959l95.593-135.295v-121.341h42.554v121.341l95.593 135.295h-51.959l-64.756-91.661zM2035.82 685.093c0 74.624-84.877 74.624-84.877 74.624h-84.492v-256.173h42.4v106.848h34.46l48.567-106.848h46.794l-51.882 113.401c22.973 8.48 49.030 26.751 49.030 68.148zM1950.942 652.869h-42.092v64.063h42.092c0 0 42.4 0 42.4-31.839 0.077-32.224-42.4-32.224-42.4-32.224zM3063.443 340.342h-42.554v-256.636h42.554c63.215 0 148.631 18.733 148.631 128.279 0 114.095-86.804 128.357-148.631 128.357zM3063.443 125.567v172.992c0 0 105.769 16.112 105.769-86.573 0-101.066-105.769-86.419-105.769-86.419zM2170.498 503.544h169.754v42.863h-127.2v64.14h105.769v42.631h-105.769v64.14h127.2v42.94h-169.754v-256.713zM2291.916 340.342h-147.861v-42.94h85.417l-85.031-213.696h147.938v42.94h-85.031l84.569 213.696z" />
<glyph unicode="&#xe904;" glyph-name="user_icon" horiz-adv-x="950" d="M941.779 30.259c-9.911 93.706-54.956 165.421-135.135 215.145-80.222 49.724-190.772 74.565-331.734 74.565s-251.555-24.968-331.734-74.863c-80.222-49.894-125.267-121.694-135.178-215.4l-7.997-93.706h91.451l7.997 85.156c3.445 33.135 13.611 62.272 30.583 87.41 16.929 25.138 37.601 45.215 62.017 60.273 24.373 15.058 53.042 27.35 86.007 36.878s65.164 15.993 96.598 19.439c31.434 3.445 64.867 5.147 100.299 5.147s68.865-1.701 100.299-5.147c31.434-3.445 63.633-9.911 96.598-19.439s61.634-21.736 86.007-36.581c24.373-14.845 45.045-34.964 62.017-60.273 16.929-25.351 27.138-54.403 30.583-87.155l7.997-85.709h91.451l-8.124 94.259zM474.909 393.129c72.778 0 133.604 29.435 182.605 88.304 48.958 58.869 73.416 132.073 73.416 219.696 0 45.726-11.612 88.559-34.879 128.585-23.224 39.983-54.573 71.715-94.003 95.152s-81.838 35.134-127.139 35.134c-45.343 0-87.708-11.697-127.139-35.134s-70.779-55.126-94.003-95.152c-23.224-39.983-34.879-82.859-34.879-128.585 0-87.623 24.458-160.869 73.416-219.696 48.958-58.869 109.827-88.304 182.605-88.304zM358.319 820.271c33.518 34.071 72.395 51.128 116.59 51.128s83.029-17.057 116.59-51.128c33.518-34.113 50.277-73.799 50.277-119.142 0-62.485-15.908-114.676-47.725-156.573s-71.545-62.867-119.142-62.867c-47.64 0-87.325 20.97-119.142 62.867s-47.725 94.089-47.725 156.573c0 45.343 16.759 85.071 50.277 119.142z" />
<glyph unicode="&#xe905;" glyph-name="x_icon" horiz-adv-x="1029" d="M1028.77 866.046l-93.954 93.954-420.431-420.431-420.384 420.431-94.001-93.954 420.431-420.431-415.614-415.614 94.001-94.001 415.567 415.614 415.614-415.614 93.954 94.001-415.567 415.614z" />
<glyph unicode="&#xe906;" glyph-name="AI_icon" d="M0 161.966h55.955v56.849h-55.955v-56.849zM0 332.693h55.955v57.028h-55.955v-57.028zM0 503.598h55.955v57.028h-55.955v-57.028zM285.497 960h-56.849v-55.955h56.849v55.955zM627.128 960h-57.028v-55.955h57.028v55.955zM798.034 960h-56.849v-55.955h56.849v55.955zM456.402 960h-57.028v-55.955h57.028v55.955zM0 674.503h55.955v57.028h-55.955v-57.028zM228.469-64h56.849v55.955h-56.849v-55.955zM741.006-64h56.849v55.955h-56.849v-55.955zM1024 674.503v57.028h-54.346v19.665c0 83.844-67.933 151.777-151.777 151.777h-607.464c-83.844 0-151.777-67.933-151.777-151.777v-604.246c0-83.844 67.933-151.777 151.777-151.777h607.464c83.844 0 151.777 67.933 151.777 151.777v15.017h54.346v56.849h-54.346v113.877h54.346v57.028h-54.346v113.877h54.346v57.028h-54.346v113.877h54.346zM527.017 261.006l-24.849 72.223h-154.279l-24.67-72.223h-115.307l158.212 415.642h117.989l158.212-415.642h-115.307zM784.447 261.006h-107.978v415.642h107.978v-415.642zM376.492 415.464h97.073l-48.626 138.369-48.447-138.369zM399.196-64h57.028v55.955h-57.028v-55.955zM570.101-64h57.028v55.955h-57.028v-55.955z" />
<glyph unicode="&#xe907;" glyph-name="burger_icon" horiz-adv-x="1461" d="M1458.938 960h-1458.938v-146.257h1458.938v146.257zM0 521.229v-146.257h1461.359v146.257h-1461.359zM0-64h1461.359v146.257h-1461.359v-146.257z" />
<glyph unicode="&#xe908;" glyph-name="check_icon" horiz-adv-x="1386" d="M1265.239 960l-783.424-783.123-361.497 361.437-120.318-120.439 481.815-481.875 903.802 903.561z" />
<glyph unicode="&#xe909;" glyph-name="computer_icon" horiz-adv-x="1541" d="M1363.528 251.758h-2.995v708.242h-1183.249l-0.319-707.859-176.965-205.96 0.51-110.181h1540.174v105.274l-177.156 210.484zM289.376 852.241h962.25v-580.728h-962.25v580.728zM151.22 46.627l91.254 110.245h1044.392l98.583-110.245h-1234.229z" />
<glyph unicode="&#xe90a;" horiz-adv-x="1295" d="M0 294.224c0-81.728 66.149-147.928 147.928-147.928h998.613c81.728 0 148.030 66.2 148.030 147.928v295.855h-1294.571v-295.855zM1146.49 960h-998.613c-81.728 0-147.876-66.251-147.876-147.979v-36.982h1294.52v36.982c0 81.728-66.302 147.979-148.030 147.979z" />
<glyph unicode="&#xe90b;" horiz-adv-x="1295" d="M1109.559 516.115h-184.807c-20.483 0-37.084-16.55-37.084-36.982v-73.964c0-20.432 16.55-36.982 37.084-36.982h184.807c20.483 0 36.931 16.55 36.931 36.982v73.964c0 20.432-16.448 36.982-36.931 36.982z" />
<glyph unicode="&#xe90c;" horiz-adv-x="1295" d="M1014.397 330.031l-194.461-194.513 48.526-48.679 110.588 110.588v-261.427h71.818v260.303l109.464-109.464 48.577 48.679z" />
<glyph unicode="&#xe90d;" glyph-name="delete_icon" d="M955.348 703.971c-141.315 244.823-454.495 328.751-699.319 187.319-244.882-141.374-328.692-454.377-187.436-699.26 141.433-244.882 454.495-328.751 699.319-187.377 244.941 141.315 328.692 454.436 187.436 699.319zM724.385 80.087c-203.184-117.251-462.988-47.714-580.239 155.529-117.31 203.184-47.655 462.929 155.47 580.239 203.184 117.369 462.929 47.773 580.298-155.47 117.251-203.184 47.714-462.929-155.529-580.298zM714.122 691.644l-185.785-185.785-184.782 184.782-60.808-60.808 184.782-184.723-184.782-184.782 60.808-60.867 184.841 184.782 185.785-185.726 60.808 60.867-185.785 185.726 185.785 185.726-60.867 60.808z" />
<glyph unicode="&#xe90e;" glyph-name="dropdown_icon" horiz-adv-x="1639" d="M1433.171 960l-614.385-614.385-614.090 614.385-204.697-204.77 818.786-819.23 819.747 819.23z" />
<glyph unicode="&#xe90f;" glyph-name="footer_logo" horiz-adv-x="1191" d="M1124.916 849.958l65.825 95.087-60.997-14.896-513.943-47.22-570.642 61.233-45.159 15.838 71.948-102.212 132.063-425.627 411.614-496.162 411.673 496.162 89.788 307.518-265.362-28.379-49.398-152.375-125.88-151.904-61.292 73.479-61.351-73.479-126.822 152.552-49.575 153.671-89.612 8.596 66.237-202.951 199.595-240.339 61.527 73.774 61.527-73.774 198.535 239.691 37.623 115.871 89.376 9.597-48.162-171.216-338.429-407.904-338.429 407.904-116.695 376.287 454.948-48.81z" />
<glyph unicode="&#xe910;" glyph-name="mobile_device_icon" horiz-adv-x="645" d="M607.134 960h-569.159c-20.982 0-37.976-16.994-37.976-37.976v-948.049c0-20.982 16.994-37.976 37.976-37.976h569.159c20.982 0 37.976 16.994 37.976 37.976v948.049c0 20.982-17.037 37.976-37.976 37.976zM319.802-25.591c-31.603 0-57.267 25.621-57.267 57.267 0 31.603 25.621 57.267 57.267 57.267 31.603 0 57.267-25.621 57.267-57.267-0.043-31.646-25.664-57.267-57.267-57.267zM548.653 156.224c0-17.21-13.959-31.126-31.17-31.126h-393.326c-17.21 0-31.17 13.959-31.17 31.126v678.664c0 17.21 13.959 31.126 31.17 31.126h393.369c17.21 0 31.17-13.959 31.17-31.126v-678.664z" />
<glyph unicode="&#xe911;" glyph-name="more_icon" d="M955.466 703.971c-141.492 244.823-454.672 328.751-699.319 187.319-244.882-141.315-328.928-454.436-187.436-699.26 141.256-244.882 454.495-328.751 699.201-187.378 244.941 141.315 328.81 454.436 187.554 699.319zM724.444 80.087c-203.125-117.31-463.047-47.714-580.239 155.47-117.428 203.184-47.714 462.988 155.47 580.298 203.125 117.31 462.988 47.714 580.357-155.47 117.251-203.184 47.596-462.929-155.588-580.298zM361.839 628.359l180.595-180.595-180.595-180.595 60.159-60.218 240.872 240.754-240.872 240.872-60.159-60.218z" />
<glyph unicode="&#xe912;" glyph-name="phone_icon" horiz-adv-x="1025" d="M968.534 243.659c-74.054 0-142.451 11.4-205.106 34.156-17.099 11.4-39.898 5.7-56.998-11.4l-125.352-125.352c-159.508 85.454-296.217 216.506-376.014 376.056l131.052 125.31c11.4 17.099 17.099 39.898 11.4 56.998-22.799 68.397-34.199 135.22-34.199 203.618 0 34.156-22.799 56.998-56.955 56.998h-199.364c-34.241-0.043-56.998-22.842-56.998-57.040 0-535.522 433.012-967.002 968.534-967.002 34.156 0 56.955 22.799 56.955 56.955v193.707c0 34.199-22.757 56.998-56.955 56.998z" />
<glyph unicode="&#xe913;" glyph-name="plus_icon" d="M605.816 540.783v419.217h-197.272v-419.217h-408.544v-198.419h408.544v-406.364h197.272v406.364h418.184v198.419z" />
</font>
</defs>
</svg>
